<svg xmlns="http://www.w3.org/2000/svg" version="1.1" xmlns:xlink="http://www.w3.org/1999/xlink" xmlns:svgjs="http://svgjs.dev/svgjs" width="1000" height="1000"><g clip-path="url(#SvgjsClipPath1138)"><rect width="1000" height="1000" fill="#000000"></rect><g transform="matrix(22.22123461179503,0,0,22.22123461179503,0,0.011110617305973847)"><svg xmlns="http://www.w3.org/2000/svg" version="1.1" xmlns:xlink="http://www.w3.org/1999/xlink" xmlns:svgjs="http://svgjs.dev/svgjs" width="45.002" height="45.001"><svg xmlns="http://www.w3.org/2000/svg" width="45.002" height="45.001" viewBox="0 0 45.002 45.001"><path d="M4126,75.5A22.5,22.5,0,1,1,4148.5,98,22.529,22.529,0,0,1,4126,75.5Zm5.047,0A17.455,17.455,0,1,0,4148.5,58.05,17.476,17.476,0,0,0,4131.044,75.5Zm10.667,12.144c-.745,0-1.031-.321-1.031-1.065V64.59c0-.716.249-1.069.884-1.069h7.769c6.668,0,9.081,3.019,9.081,6.067V81.579c0,3.049-2.413,6.067-9.081,6.067Zm4.692-4.788h2.929c1.74,0,3.226-.675,3.226-2.307V70.62c0-1.633-1.486-2.305-3.226-2.305H4146.4Z" transform="translate(-4125.997 -52.999)" fill="#fff"></path></svg></svg></g></g><defs><clipPath id="SvgjsClipPath1138"><rect width="1000" height="1000" x="0" y="0" rx="500" ry="500"></rect></clipPath></defs></svg>