<?xml version="1.0" standalone="no"?>
<!DOCTYPE svg PUBLIC "-//W3C//DTD SVG 20010904//EN"
 "http://www.w3.org/TR/2001/REC-SVG-20010904/DTD/svg10.dtd">
<svg version="1.0" xmlns="http://www.w3.org/2000/svg"
 width="512.000000pt" height="512.000000pt" viewBox="0 0 512.000000 512.000000"
 preserveAspectRatio="xMidYMid meet">

<g transform="translate(0.000000,512.000000) scale(0.100000,-0.100000)"
fill="#000000" stroke="none">
<path d="M3240 4503 c-125 -21 -284 -101 -387 -196 -126 -116 -248 -353 -303
-586 l-13 -54 -33 102 c-70 215 -161 372 -285 493 -64 63 -99 87 -182 128
-126 62 -196 80 -307 80 -175 0 -321 -74 -453 -229 -52 -60 -126 -179 -154
-247 -14 -33 -28 -47 -62 -64 -92 -45 -188 -115 -268 -195 -120 -121 -183
-264 -183 -415 0 -116 75 -307 165 -422 116 -149 365 -287 624 -348 l54 -13
-102 -33 c-303 -99 -511 -252 -614 -451 -172 -334 -90 -627 236 -843 49 -32
112 -68 141 -80 47 -20 55 -28 86 -88 47 -90 135 -206 204 -270 211 -192 478
-210 742 -51 196 119 351 367 424 678 l13 55 37 -112 c110 -329 260 -519 493
-627 342 -158 668 -22 854 356 42 85 53 99 88 115 82 39 215 136 282 208 191
205 223 445 93 695 -51 98 -118 181 -200 249 -93 76 -292 172 -440 213 l-120
33 100 33 c302 98 510 251 613 450 115 223 118 423 7 607 -70 116 -229 248
-375 312 -54 24 -66 34 -85 73 -75 155 -223 319 -346 383 -108 57 -234 79
-344 61z m150 -153 c85 -16 152 -53 228 -125 78 -73 135 -152 182 -249 35 -74
47 -86 125 -117 83 -32 224 -129 279 -190 100 -111 136 -245 102 -379 -75
-301 -336 -489 -809 -585 -181 -36 -352 -53 -618 -59 l-237 -5 -5 42 c-12 99
-7 537 7 673 35 325 117 589 232 746 86 116 232 214 366 243 79 17 84 17 148
5z m-1555 -45 c215 -55 388 -225 485 -477 101 -260 145 -533 154 -950 l5 -236
-47 -6 c-26 -3 -184 -4 -352 -2 -250 2 -329 7 -436 24 -469 75 -733 229 -840
491 -71 177 -42 332 88 468 79 82 134 122 236 173 93 47 97 51 133 136 15 35
52 102 83 148 134 201 300 279 491 231z m1522 -1830 c403 -43 686 -150 842
-320 31 -35 70 -95 99 -154 l47 -96 0 -110 c0 -97 -3 -116 -26 -165 -51 -109
-174 -223 -324 -300 -47 -24 -91 -51 -99 -59 -7 -9 -23 -43 -37 -76 -32 -83
-129 -224 -190 -279 -145 -130 -308 -149 -504 -57 -209 97 -350 312 -440 671
-54 213 -77 462 -84 917 l-1 32 128 4 c329 8 453 6 589 -8z m-873 -42 c3 -27
4 -185 2 -353 -2 -250 -7 -329 -24 -436 -75 -469 -229 -733 -491 -840 -176
-71 -326 -43 -464 86 -81 75 -122 130 -177 235 -23 44 -48 86 -55 94 -7 7 -43
26 -79 41 -93 39 -227 131 -281 193 -100 114 -135 243 -101 377 82 328 387
524 949 612 116 18 301 28 644 36 l71 2 6 -47z"/>
</g>
</svg>
